<svg xmlns="http://www.w3.org/2000/svg" width="960" height="456" viewBox="0 0 960 456" font-family="Pretendard, Apple SD Gothic Neo, Malgun Gothic, sans-serif" font-size="13">
<rect width="100%" height="100%" fill="#ffffff"/>
<text x="24" y="34" font-size="20" font-weight="700" fill="#1c211d">학습 현황판</text>
<text x="24" y="52" fill="#6b7280">단원 = 차시. 준비도 = 단원 준비도의 중요도 가중 평균(0~100). main 에 풀이가 올라오면 자동 갱신됩니다.</text>
<rect x="16" y="64" width="928" height="102" rx="12" fill="#f5f5f3"/>
<text x="32" y="92" font-size="16" font-weight="700" fill="#1c211d">WaterMinCho</text>
<rect x="32" y="104" width="220" height="12" rx="6" fill="#e5e7eb"/>
<rect x="32" y="104" width="151" height="12" rx="6" fill="#2e7d32"/>
<text x="32" y="134" fill="#374151">준비도 69% · 숙달 3/16 · 회차 3 · 정답률 84%</text>
<rect x="300" y="86" width="18" height="18" rx="4" fill="#ffb300"><title>s01 파이썬 소개 및 환경설정: 레벨2 진행</title></rect>
<text x="309" y="118" font-size="9" fill="#6b7280" text-anchor="middle">01</text>
<rect x="322" y="86" width="18" height="18" rx="4" fill="#fb8c00"><title>s02 프로그래밍 기초: 레벨1 진행</title></rect>
<text x="331" y="118" font-size="9" fill="#6b7280" text-anchor="middle">02</text>
<rect x="344" y="86" width="18" height="18" rx="4" fill="#fb8c00"><title>s03 조건식과 제어문: 레벨1 진행</title></rect>
<text x="353" y="118" font-size="9" fill="#6b7280" text-anchor="middle">03</text>
<rect x="366" y="86" width="18" height="18" rx="4" fill="#fb8c00"><title>s04 리스트와 딕셔너리: 레벨1 진행</title></rect>
<text x="375" y="118" font-size="9" fill="#6b7280" text-anchor="middle">04</text>
<rect x="388" y="86" width="18" height="18" rx="4" fill="#ffb300"><title>s05 반복문: 레벨2 진행</title></rect>
<text x="397" y="118" font-size="9" fill="#6b7280" text-anchor="middle">05</text>
<rect x="410" y="86" width="18" height="18" rx="4" fill="#fb8c00"><title>s06 함수(1): 레벨1 진행</title></rect>
<text x="419" y="118" font-size="9" fill="#6b7280" text-anchor="middle">06</text>
<rect x="432" y="86" width="18" height="18" rx="4" fill="#ffb300"><title>s07 함수(2): 레벨2 진행</title></rect>
<text x="441" y="118" font-size="9" fill="#6b7280" text-anchor="middle">07</text>
<rect x="454" y="86" width="18" height="18" rx="4" fill="#ffb300"><title>s08 자료구조와 알고리즘: 레벨2 진행</title></rect>
<text x="463" y="118" font-size="9" fill="#6b7280" text-anchor="middle">08</text>
<rect x="476" y="86" width="18" height="18" rx="4" fill="#81c784"><title>s09 클래스(1): 숙달</title></rect>
<text x="485" y="118" font-size="9" fill="#6b7280" text-anchor="middle">09</text>
<rect x="498" y="86" width="18" height="18" rx="4" fill="#ffb300"><title>s10 클래스(2): 레벨2 진행</title></rect>
<text x="507" y="118" font-size="9" fill="#6b7280" text-anchor="middle">10</text>
<rect x="520" y="86" width="18" height="18" rx="4" fill="#81c784"><title>s11 GUI 프로그래밍(PyQt6 · tkinter): 숙달</title></rect>
<text x="529" y="118" font-size="9" fill="#6b7280" text-anchor="middle">11</text>
<rect x="542" y="86" width="18" height="18" rx="4" fill="#81c784"><title>s12 파일 처리: 숙달</title></rect>
<text x="551" y="118" font-size="9" fill="#6b7280" text-anchor="middle">12</text>
<rect x="564" y="86" width="18" height="18" rx="4" fill="#ffb300"><title>s13 예외 처리·문자열·람다·map: 레벨2 진행</title></rect>
<text x="573" y="118" font-size="9" fill="#6b7280" text-anchor="middle">13</text>
<rect x="586" y="86" width="18" height="18" rx="4" fill="#ffb300"><title>s14 정규표현식: 레벨2 진행</title></rect>
<text x="595" y="118" font-size="9" fill="#6b7280" text-anchor="middle">14</text>
<rect x="608" y="86" width="18" height="18" rx="4" fill="#ffb300"><title>s15 고급 함수: 레벨2 진행</title></rect>
<text x="617" y="118" font-size="9" fill="#6b7280" text-anchor="middle">15</text>
<rect x="630" y="86" width="18" height="18" rx="4" fill="#ffb300"><title>s16 알고리즘(1): 레벨2 진행</title></rect>
<text x="639" y="118" font-size="9" fill="#6b7280" text-anchor="middle">16</text>
<text x="300" y="138" fill="#b91c1c">약한 단원: s04, s06, s02</text>
<text x="560" y="138" fill="#166534">능숙한 단원: s09, s11, s12</text>
<text x="300" y="158" fill="#374151">약한 개념: 변수 이름 규칙, 비교 연산자, 출력 형식, 인덱스</text>
<rect x="16" y="176" width="928" height="102" rx="12" fill="#f5f5f3"/>
<text x="32" y="204" font-size="16" font-weight="700" fill="#1c211d">wamangdoo</text>
<rect x="32" y="216" width="220" height="12" rx="6" fill="#e5e7eb"/>
<rect x="32" y="216" width="143" height="12" rx="6" fill="#2e7d32"/>
<text x="32" y="246" fill="#374151">준비도 65% · 숙달 2/16 · 회차 3 · 정답률 80%</text>
<rect x="300" y="198" width="18" height="18" rx="4" fill="#ffb300"><title>s01 파이썬 소개 및 환경설정: 레벨2 진행</title></rect>
<text x="309" y="230" font-size="9" fill="#6b7280" text-anchor="middle">01</text>
<rect x="322" y="198" width="18" height="18" rx="4" fill="#ffb300"><title>s02 프로그래밍 기초: 레벨2 진행</title></rect>
<text x="331" y="230" font-size="9" fill="#6b7280" text-anchor="middle">02</text>
<rect x="344" y="198" width="18" height="18" rx="4" fill="#fb8c00"><title>s03 조건식과 제어문: 레벨1 진행</title></rect>
<text x="353" y="230" font-size="9" fill="#6b7280" text-anchor="middle">03</text>
<rect x="366" y="198" width="18" height="18" rx="4" fill="#fb8c00"><title>s04 리스트와 딕셔너리: 레벨1 진행</title></rect>
<text x="375" y="230" font-size="9" fill="#6b7280" text-anchor="middle">04</text>
<rect x="388" y="198" width="18" height="18" rx="4" fill="#81c784"><title>s05 반복문: 숙달</title></rect>
<text x="397" y="230" font-size="9" fill="#6b7280" text-anchor="middle">05</text>
<rect x="410" y="198" width="18" height="18" rx="4" fill="#ffb300"><title>s06 함수(1): 레벨2 진행</title></rect>
<text x="419" y="230" font-size="9" fill="#6b7280" text-anchor="middle">06</text>
<rect x="432" y="198" width="18" height="18" rx="4" fill="#ffb300"><title>s07 함수(2): 레벨2 진행</title></rect>
<text x="441" y="230" font-size="9" fill="#6b7280" text-anchor="middle">07</text>
<rect x="454" y="198" width="18" height="18" rx="4" fill="#fb8c00"><title>s08 자료구조와 알고리즘: 레벨1 진행</title></rect>
<text x="463" y="230" font-size="9" fill="#6b7280" text-anchor="middle">08</text>
<rect x="476" y="198" width="18" height="18" rx="4" fill="#ffb300"><title>s09 클래스(1): 레벨2 진행</title></rect>
<text x="485" y="230" font-size="9" fill="#6b7280" text-anchor="middle">09</text>
<rect x="498" y="198" width="18" height="18" rx="4" fill="#81c784"><title>s10 클래스(2): 숙달</title></rect>
<text x="507" y="230" font-size="9" fill="#6b7280" text-anchor="middle">10</text>
<rect x="520" y="198" width="18" height="18" rx="4" fill="#fb8c00"><title>s11 GUI 프로그래밍(PyQt6 · tkinter): 레벨1 진행</title></rect>
<text x="529" y="230" font-size="9" fill="#6b7280" text-anchor="middle">11</text>
<rect x="542" y="198" width="18" height="18" rx="4" fill="#ffb300"><title>s12 파일 처리: 레벨2 진행</title></rect>
<text x="551" y="230" font-size="9" fill="#6b7280" text-anchor="middle">12</text>
<rect x="564" y="198" width="18" height="18" rx="4" fill="#fb8c00"><title>s13 예외 처리·문자열·람다·map: 레벨1 진행</title></rect>
<text x="573" y="230" font-size="9" fill="#6b7280" text-anchor="middle">13</text>
<rect x="586" y="198" width="18" height="18" rx="4" fill="#ffb300"><title>s14 정규표현식: 레벨2 진행</title></rect>
<text x="595" y="230" font-size="9" fill="#6b7280" text-anchor="middle">14</text>
<rect x="608" y="198" width="18" height="18" rx="4" fill="#ffb300"><title>s15 고급 함수: 레벨2 진행</title></rect>
<text x="617" y="230" font-size="9" fill="#6b7280" text-anchor="middle">15</text>
<rect x="630" y="198" width="18" height="18" rx="4" fill="#ffb300"><title>s16 알고리즘(1): 레벨2 진행</title></rect>
<text x="639" y="230" font-size="9" fill="#6b7280" text-anchor="middle">16</text>
<text x="300" y="250" fill="#b91c1c">약한 단원: s04, s08, s03</text>
<text x="560" y="250" fill="#166534">능숙한 단원: s05, s10</text>
<text x="300" y="270" fill="#374151">약한 개념: if 문법, 리스트 추가, 튜플, NameError</text>
<rect x="16" y="288" width="928" height="102" rx="12" fill="#f5f5f3"/>
<text x="32" y="316" font-size="16" font-weight="700" fill="#1c211d">michae18</text>
<rect x="32" y="328" width="220" height="12" rx="6" fill="#e5e7eb"/>
<rect x="32" y="328" width="125" height="12" rx="6" fill="#2e7d32"/>
<text x="32" y="358" fill="#374151">준비도 57% · 숙달 0/16 · 회차 2 · 정답률 72%</text>
<rect x="300" y="310" width="18" height="18" rx="4" fill="#ffb300"><title>s01 파이썬 소개 및 환경설정: 레벨2 진행</title></rect>
<text x="309" y="342" font-size="9" fill="#6b7280" text-anchor="middle">01</text>
<rect x="322" y="310" width="18" height="18" rx="4" fill="#fb8c00"><title>s02 프로그래밍 기초: 레벨1 진행</title></rect>
<text x="331" y="342" font-size="9" fill="#6b7280" text-anchor="middle">02</text>
<rect x="344" y="310" width="18" height="18" rx="4" fill="#fb8c00"><title>s03 조건식과 제어문: 레벨1 진행</title></rect>
<text x="353" y="342" font-size="9" fill="#6b7280" text-anchor="middle">03</text>
<rect x="366" y="310" width="18" height="18" rx="4" fill="#fb8c00"><title>s04 리스트와 딕셔너리: 레벨1 진행</title></rect>
<text x="375" y="342" font-size="9" fill="#6b7280" text-anchor="middle">04</text>
<rect x="388" y="310" width="18" height="18" rx="4" fill="#ffb300"><title>s05 반복문: 레벨2 진행</title></rect>
<text x="397" y="342" font-size="9" fill="#6b7280" text-anchor="middle">05</text>
<rect x="410" y="310" width="18" height="18" rx="4" fill="#fb8c00"><title>s06 함수(1): 레벨1 진행</title></rect>
<text x="419" y="342" font-size="9" fill="#6b7280" text-anchor="middle">06</text>
<rect x="432" y="310" width="18" height="18" rx="4" fill="#ffb300"><title>s07 함수(2): 레벨2 진행</title></rect>
<text x="441" y="342" font-size="9" fill="#6b7280" text-anchor="middle">07</text>
<rect x="454" y="310" width="18" height="18" rx="4" fill="#ffb300"><title>s08 자료구조와 알고리즘: 레벨2 진행</title></rect>
<text x="463" y="342" font-size="9" fill="#6b7280" text-anchor="middle">08</text>
<rect x="476" y="310" width="18" height="18" rx="4" fill="#ffb300"><title>s09 클래스(1): 레벨2 진행</title></rect>
<text x="485" y="342" font-size="9" fill="#6b7280" text-anchor="middle">09</text>
<rect x="498" y="310" width="18" height="18" rx="4" fill="#ffb300"><title>s10 클래스(2): 레벨2 진행</title></rect>
<text x="507" y="342" font-size="9" fill="#6b7280" text-anchor="middle">10</text>
<rect x="520" y="310" width="18" height="18" rx="4" fill="#fb8c00"><title>s11 GUI 프로그래밍(PyQt6 · tkinter): 레벨1 진행</title></rect>
<text x="529" y="342" font-size="9" fill="#6b7280" text-anchor="middle">11</text>
<rect x="542" y="310" width="18" height="18" rx="4" fill="#fb8c00"><title>s12 파일 처리: 레벨1 진행</title></rect>
<text x="551" y="342" font-size="9" fill="#6b7280" text-anchor="middle">12</text>
<rect x="564" y="310" width="18" height="18" rx="4" fill="#ffb300"><title>s13 예외 처리·문자열·람다·map: 레벨2 진행</title></rect>
<text x="573" y="342" font-size="9" fill="#6b7280" text-anchor="middle">13</text>
<rect x="586" y="310" width="18" height="18" rx="4" fill="#ffb300"><title>s14 정규표현식: 레벨2 진행</title></rect>
<text x="595" y="342" font-size="9" fill="#6b7280" text-anchor="middle">14</text>
<rect x="608" y="310" width="18" height="18" rx="4" fill="#fb8c00"><title>s15 고급 함수: 레벨1 진행</title></rect>
<text x="617" y="342" font-size="9" fill="#6b7280" text-anchor="middle">15</text>
<rect x="630" y="310" width="18" height="18" rx="4" fill="#fb8c00"><title>s16 알고리즘(1): 레벨1 진행</title></rect>
<text x="639" y="342" font-size="9" fill="#6b7280" text-anchor="middle">16</text>
<text x="300" y="362" fill="#b91c1c">약한 단원: s11, s02, s03</text>
<text x="560" y="362" fill="#166534">능숙한 단원: -</text>
<text x="300" y="382" fill="#374151">약한 개념: 프로그램 실행 과정, 변수와 대입, 자료형, 연산자 우선순위</text>
<rect x="24" y="424" width="12" height="12" rx="3" fill="#2e7d32"/>
<text x="40" y="434" fill="#374151">숙달</text>
<rect x="134" y="424" width="12" height="12" rx="3" fill="#ffb300"/>
<text x="150" y="434" fill="#374151">레벨2 진행</text>
<rect x="244" y="424" width="12" height="12" rx="3" fill="#fb8c00"/>
<text x="260" y="434" fill="#374151">레벨1 진행</text>
<rect x="354" y="424" width="12" height="12" rx="3" fill="#e53935"/>
<text x="370" y="434" fill="#374151">재도전</text>
<rect x="464" y="424" width="12" height="12" rx="3" fill="#cfd8dc"/>
<text x="480" y="434" fill="#374151">미진단</text>
</svg>
